<?xml version="1.0" encoding="UTF-8"?>
<svg id="Layer_2" data-name="Layer 2" xmlns="http://www.w3.org/2000/svg" viewBox="0 0 237.21 188.1">
  <defs>
    <style>
      .cls-1 {
        fill: #1399cc;
      }

      .cls-2 {
        fill: #187eaa;
      }

      .cls-3 {
        fill: #1082ae;
      }

      .cls-4 {
        fill: #1199cb;
      }

      .cls-5 {
        fill: #d0d2d4;
      }

      .cls-6 {
        fill: #8c8d91;
      }
    </style>
  </defs>
  <g id="Capa_1" data-name="Capa 1">
    <g>
      <path class="cls-2" d="m124.35,173.06c-18.29,8.57-34.05,11.72-44.31,13.04-15.71,2.03-53.86,6.95-69.79-13.95-6.18-8.11-6.67-17.03-6.73-18.78-.67-17.71,13.83-29.59,16.01-31.31-.92.78-17.04,15.01-13.42,32.96,1.87,9.29,8.15,15.19,10.6,17.42,6.89,6.3,15.37,9.3,27.08,10.83,27.66,3.61,55.32-3.33,69.22-7.53,3.78-.89,7.56-1.79,11.35-2.68Z"/>
      <path class="cls-1" d="m6.26,156.66c1.95,2.49,4.98,5.9,9.26,9.2,13.01,10.03,27.22,11.02,35.28,11.59,30.74,2.15,57.56-14.44,65.16-19.44-8.6,8.09-17.19,16.18-25.79,24.28-2.42.49-43.42,8.58-64.88-1.53-4.48-2.11-12.36-5.83-16.5-14.33-1.84-3.79-2.37-7.36-2.52-9.76Z"/>
      <path class="cls-4" d="m25.2,117.66c-2.91,1.12-7.65,3.36-12.25,7.77-5.53,5.31-7.89,10.92-8.56,12.64-1.07,2.73-3.67,9.67-1.85,18.33,1.04,4.94,3.13,8.6,4.61,10.78-1.61-3.96-4.55-12.89-1.97-23.31,1.67-6.73,4.97-11.37,6.85-13.96,4.57-6.3,9.78-10.13,13.17-12.25Z"/>
      <path class="cls-6" d="m48.06,94.93c9.24,13.21,20.68,27.73,34.76,42.52,20.25,21.28,40.45,37.38,57.86,49.35-14.55-.66-29.55-1.61-44.98-2.92-22.98-1.95-44.94-4.5-65.82-7.49.41-2.47,1.24-5.81,3.02-9.46,1.42-2.91,3.05-5.19,4.44-6.87-6.13-4.18-14.66-11.14-22.12-21.88C2.84,120.33.52,102.31,0,93.73c2.26-14.23,4.53-28.45,6.79-42.68-.14,5.36.32,13.59,3.78,22.74,1.19,3.14,3.69,8.94,11.37,18.71,5.6,7.12,14.32,16.84,27.15,26.63-.6-3.47-1.08-7.42-1.28-11.78-.21-4.59-.06-8.77.26-12.42Z"/>
      <path class="cls-6" d="m23.09,73.92c-6.19-12.18-4-19.2-2.98-21.65,5.84-14.04,32.77-21.06,66.26-11,4.35,5.12,8.69,10.25,13.04,15.37-4.95,1.88-9.9,3.76-14.85,5.63-7.24-1.09-13.21-1.43-17.29-1.54-14.68-.39-28.2-.57-38.8,7.81-2.6,2.05-4.38,4.11-5.38,5.38Z"/>
      <path class="cls-6" d="m149.82,81.14c7.95-.58,15.9-1.15,23.85-1.73,5.57,3.92,27.74,19.82,41.94,38.6,0,0,8.36,11.06,11.74,23.96.91,3.48,1.43,6.98.96,10.99-.53,4.57-2.13,8.1-3.33,10.27.26-2.63.4-6.5-.37-11.09,0,0-.39-2.31-1.03-4.58-2.57-9.04-10-17.98-10-17.98-16.8-20.21-35.17-32.68-35.17-32.68-6.78-4.59-16.34-10.38-28.59-15.76Z"/>
      <path class="cls-6" d="m161.08,180.06c9.64,2.74,17.83,3.24,23.42,3.2,6.12-.05,15.55-.22,26.18-4.91,5.36-2.36,10.81-4.84,14.93-10.79,3.6-5.19,4.48-10.56,4.72-13.64-1.96,5.71-4.67,9.89-7.23,12.92-19.46,23.02-59.22,13.9-62.02,13.22Z"/>
      <path class="cls-5" d="m48.03,94c4.67-.93,9.35-1.87,14.02-2.8,8.68,12.14,18.86,25.1,30.77,38.38,15.59,17.38,31.05,31.88,45.28,43.82.86,4.47,1.72,8.94,2.58,13.4-16.8-11.43-36.53-26.99-56.34-47.76-15.05-15.78-26.96-31.24-36.31-45.04Z"/>
      <path class="cls-5" d="m48.68,100.96c.13,6.06.27,12.11.4,18.17C14.28,95.79-.41,63.74,8.06,48.07c9.4-17.39,48.63-16.95,71.67-11.8,7.05,1.58,12.89,3.66,17.3,5.5-1.08,1.29-2.16,2.59-3.23,3.88-1.98-.99-5.26-2.51-9.47-3.92-21.36-7.14-52.67-6.6-61.85,9.5-1.07,1.87-1.56,3.47-1.78,4.25-5.54,20.14,23.39,42.07,27.99,45.47Z"/>
      <path class="cls-5" d="m169.31,78.32c-.05-1.51-.11-3.02-.16-4.53,6.74,3.29,16.6,8.88,26.68,17.95,16.96,15.25,43.74,48.59,32.82,69.85-6.21,12.09-23.05,17.24-26.74,18.37-8.26,2.52-15.67,2.48-20.96,2.45-9.12-.05-16.67-1.49-21.99-2.87,5.73.75,14.12,1.45,24.25.81,6.41-.41,11.55-.73,17.64-2.61,6.66-2.05,19.56-6.02,24.65-16.49,7.4-15.19-6.04-35.05-11.09-42.51-3.3-4.88-6.25-8-10.19-12.13-7.43-7.79-18.73-18.16-34.93-28.3Z"/>
      <path class="cls-4" d="m118.72,156.6c9.83-3.94,21.64-9.65,34.1-17.99,12.27-8.22,20.3-15.72,27.25-22.28,0,0,15.28-14.42,24.33-30.16,1.9-3.31,4.5-8.41,4.27-14.97-.1-2.84-.7-5.14-1.19-6.62,3.08.19,8.44,1.01,13.02,4.8,8.92,7.36,8.34,19.26,8.22,21.25-.46,8.17-4.55,14.48-11.82,22.85-23.25,26.76-49.12,40.22-54.49,42.95-6.64,3.37-16.43,7.9-28.92,12.02-4.92-3.95-9.85-7.9-14.77-11.85Z"/>
      <path class="cls-3" d="m171.03,66.3c11.49-2.47,20.8-1.68,26.5-.74,6.86,1.13,13.63,2.33,19.78,7.77.21.19,5.24,4.7,7.08,9.51,6,15.66-19.78,39.58-28.27,47.46-11.84,10.99-31.95,26.62-62.63,38.14.66.63,1.33,1.27,1.99,1.9,5.98-2.23,14.61-5.73,24.61-10.85,7.21-3.69,29.24-15.47,52.74-37.91,10.39-9.91,17.4-18.42,21.67-29.95,4.05-10.97,2.64-16.6,1.63-19.27-2.65-7.07-8.87-10.52-14.32-13.55-11.96-6.66-23.49-6.92-30.28-6.99-6.41-.07-16.61.6-28.54,4.95,2.68,3.17,5.36,6.35,8.04,9.52Z"/>
      <path class="cls-4" d="m51.43,76.64c16.49-16.26,34.26-32.83,53.38-49.49,10.89-9.49,21.68-18.53,32.32-27.15,1.8,5.88,3.61,11.76,5.41,17.65,11.74-2.16,37.66-5.06,61.19,9.48,4.04,2.5,7.57,5.24,10.66,8.05,6.05,10.25,13.67,23.08,19.72,33.33-3.1-2.56-8.24-7.57-12.3-9.68-23.9-12.37-49.47-5.2-58.82-2.04,4.7,5.57,9.4,11.14,14.1,16.71-15.17-3.36-34.42-6.21-56.74-6.19-28.05.03-51.6,4.59-68.92,9.35Z"/>
      <path class="cls-2" d="m51.43,76.64c3.4,2.42,6.8,4.84,10.21,7.26,16.13-2.69,36.09-4.64,58.91-3.81,18.62.67,35.08,3.04,48.9,5.9,2.55-4.17,5.1-8.33,7.65-12.5-13.75-3.05-30.27-5.55-49.01-6.08-31.23-.89-57.51,4-76.66,9.24Z"/>
    </g>
  </g>
</svg>